# xmcd
#
# Track frame offsets:
# 150
# 17060
# 30691
# 41826
# 55132
# 71001
# 86293
# 102159
# 116550
# 127998
#
# Disc length: 2034 seconds
#
#
# Revision: 0
# Processed by: cddbd v1.5.2PL0 Copyright (c) Steve Scherf et al.
# Submitted via: FreeRIP 2.51 
#
DISCID=7d07f00a
DTITLE=VINKO COCE - RIBARSKA NOC
DYEAR=2001
DGENRE=Ballad
TTITLE0=Pijani od ljubavi
TTITLE1=U okrilju snova
TTITLE2=Starac i more
TTITLE3=Nakon lita
TTITLE4=Dite dalmatinskog krsa
TTITLE5=Stvoren za tebe
TTITLE6=Sam
TTITLE7=Ribarska noc
TTITLE8=Stari kapo
TTITLE9=Pape
EXTD=
EXTT0=
EXTT1=
EXTT2=
EXTT3=
EXTT4=
EXTT5=
EXTT6=
EXTT7=
EXTT8=
EXTT9=
PLAYORDER=
